<?xml version="1.0" encoding="utf-8"?>
<!-- Generator: Adobe Illustrator 18.0.0, SVG Export Plug-In . SVG Version: 6.00 Build 0)  -->
<!DOCTYPE svg PUBLIC "-//W3C//DTD SVG 1.1//EN" "http://www.w3.org/Graphics/SVG/1.1/DTD/svg11.dtd">
<svg version="1.1" id="Layer_1" xmlns="http://www.w3.org/2000/svg" xmlns:xlink="http://www.w3.org/1999/xlink" x="0px" y="0px"
	 viewBox="0 0 302.4 270.1" enable-background="new 0 0 302.4 270.1" xml:space="preserve">
<g>
	<g>
		<g>
			<g>
				<path fill="#FFF2E7" d="M130.4,0C55.4-0.1,12.6,39.2,2.2,60.8c-5.1,10.5-0.3,10.9,2.2,12.6c3,1.9,10.2,2.9,24.6,11.1
					c12.2,6.9,20.1,15.4,23.7,18.2c1.9,1.5,2.9-0.1,2.9-0.1c6.2-7,36-43,98.7-29.3c49.6,10.6,58.8,47.6,64.9,93.1
					c0.3,2.3,0.9,6.3,4.6,9.6c3.8,3.4,13.9,11,17.3,10.7c3.4-0.3,12.3-24.2,14.1-61.8C257.2,87.3,231.5,0.1,130.4,0z"/>
			</g>
		</g>
	</g>
	<g>
		<g>
			<g>
				<path fill="#FFF2E7" d="M288.4,217.1c-30.4-8.8-71.8-31.3-75.3-43.2c-3.5-11.9,0.1-26.2-15-58.6C183,82.9,150.3,77,119.3,78.7
					c-32.9,1.8-46.4,17.6-59.1,30.5c-2.1,2.2,3.9,3.9,5.4,16.3c1.3,11,0.3,17.5-2,32.9c-2,13-9.1,27.3-2.1,29.1
					c5.2,1.3,5.8,0.4,5.8,0.4c-7,29.5-22.9,56.8-30.3,65.7s-5.6,16.2,5.2,16.4c10.8,0.2,66.1-21.8,86.8-29.7
					c20.7-7.9-10.6-36.1,24.7-37c35.2-0.9,25.1,20.3,85,30C298.6,243.1,318.8,225.9,288.4,217.1z M94.6,161.8
					c-0.4,9.7-20.6,13.5-22.2,12.6c-1.1-2.9,3.3-25.1,3.3-25.1c0,0,0-2.6,4.5-1.5C84.7,148.7,95,152.1,94.6,161.8z"/>
			</g>
		</g>
	</g>
</g>
<g>
	<g>
		<g>
			<g>
				<path fill="#EAB736" d="M288.4,217.1c-30.4-8.8-71.8-31.3-75.3-43.2c-3.5-11.9,0.1-26.2-15-58.6C183,82.9,150.3,77,119.3,78.7
					c-32.9,1.8-46.4,17.6-59.1,30.5c-2.1,2.2,3.9,3.9,5.4,16.3c1.3,11,0.3,17.5-2,32.9c-2,13-9.1,27.3-2.1,29.1
					c5.2,1.3,5.8,0.4,5.8,0.4c-7,29.5-22.9,56.8-30.3,65.7s-5.6,16.2,5.2,16.4c10.8,0.2,66.1-21.8,86.8-29.7
					c20.7-7.9-10.6-36.1,24.7-37c35.2-0.9,25.1,20.3,85,30C298.6,243.1,318.8,225.9,288.4,217.1z M94.6,161.8
					c-0.4,9.7-20.6,13.5-22.2,12.6c-1.1-2.9,3.3-25.1,3.3-25.1c0,0,0-2.6,4.5-1.5C84.7,148.7,95,152.1,94.6,161.8z"/>
			</g>
		</g>
	</g>
	<g>
		<g>
			<g>
				<path fill="#EAB736" d="M234,52.1c-69.7,0-113.8-0.1-188.1-0.1C32.9,52,20,52,7.6,52c-2.3,3.1-4.1,6.1-5.4,8.8
					c-5.1,10.5-0.3,10.9,2.2,12.6c3,1.9,10.2,2.9,24.6,11.1c12.2,6.9,20.1,15.4,23.7,18.2c1.9,1.5,2.9-0.1,2.9-0.1
					c6.2-7,36-43,98.7-29.3c49.6,10.6,58.8,47.6,64.9,93.1c0.3,2.3,0.9,6.3,4.6,9.6c3.8,3.4,13.9,11,17.3,10.7
					c3.4-0.3,12.3-24.2,14.1-61.8C256.2,106.9,250.8,77.8,234,52.1z"/>
			</g>
		</g>
	</g>
</g>
</svg>
