<?xml version="1.0" encoding="utf-8"?>
<!-- Generator: Adobe Illustrator 18.0.0, SVG Export Plug-In . SVG Version: 6.00 Build 0)  -->
<!DOCTYPE svg PUBLIC "-//W3C//DTD SVG 1.1//EN" "http://www.w3.org/Graphics/SVG/1.1/DTD/svg11.dtd">
<svg version="1.1" id="Layer_1" xmlns="http://www.w3.org/2000/svg" xmlns:xlink="http://www.w3.org/1999/xlink" x="0px" y="0px"
	 viewBox="0 0 52.7 77" enable-background="new 0 0 52.7 77" xml:space="preserve">
<path fill="#EAB736" d="M40.1,64.9c-0.2,1.5-1.5,2.8-3,2.8H15.6c-1.5,0-2.8-1.3-3-2.8L8.3,21.7c-0.2-1.5,0.9-2.9,2.4-2.9h31.4
	c1.5,0,2.6,1.3,2.4,2.9L40.1,64.9z"/>
<path opacity="0.2" fill="#FFFFFF" d="M47.8,0h-43C1.9,0-0.3,2.4,0,5.3l6.2,66.5c0.3,3,2.9,5.2,5.9,5.2h28.6c3,0,5.6-2.4,5.9-5.3
	l6.2-66.4C53,2.3,50.8,0,47.8,0z M46.6,20l-4.9,46.1c-0.2,1.6-1.7,2.9-3.3,2.9H14.3c-1.7,0-3.1-1.3-3.3-3L6.1,20c-0.2-1.6,1-3,2.7-3
	h35.2C45.6,17,46.8,18.3,46.6,20z"/>
</svg>
