<?xml version="1.0" encoding="UTF-8" standalone="no"?>
<svg width="53px" height="77px" viewBox="0 0 53 77" version="1.1" xmlns="http://www.w3.org/2000/svg" xmlns:xlink="http://www.w3.org/1999/xlink" xmlns:sketch="http://www.bohemiancoding.com/sketch/ns">
    <!-- Generator: Sketch 3.4.2 (15855) - http://www.bohemiancoding.com/sketch -->
    <title>shot</title>
    <desc>Created with Sketch.</desc>
    <defs></defs>
    <g id="Centurion-UI" stroke="none" stroke-width="1" fill="none" fill-rule="evenodd" sketch:type="MSPage">
        <g id="Game-::-Mobile" sketch:type="MSArtboardGroup" transform="translate(-144.000000, -508.000000)">
            <g id="shot" sketch:type="MSLayerGroup" transform="translate(144.000000, 508.000000)">
                <path d="M36.0158917,67.4999886 L16.8040893,67.4999886 C15.463731,67.4999886 14.3020871,66.2863696 14.1233726,64.88604 L10.2810122,23.5072917 C10.1022977,22.1069621 11.0852271,20.7999878 12.4255855,20.7999878 L40.4837527,20.7999878 C41.824111,20.7999878 42.8070404,22.0136068 42.628326,23.5072917 L38.6966083,64.88604 C38.5178938,66.2863696 37.35625,67.4999886 36.0158917,67.4999886 Z" id="Shape" fill="#EAB736" sketch:type="MSShapeGroup"></path>
                <path d="M41.7809,68.0627 C41.6069,69.7117 40.1119,70.9997 38.4599,70.9997 L14.2829,70.9997 C12.6299,70.9997 11.1359,69.6627 10.9619,68.0137 L6.1059,19.9637 C5.9319,18.3137 7.1419,16.9997 8.7939,16.9997 L43.9479,16.9997 C45.6009,16.9997 46.8109,18.3307 46.6369,19.9797 L41.7809,68.0627 Z M4.8949,-0.0003 C1.9419,-0.0003 -0.2501,2.3547 0.0229,5.3047 L6.1869,71.7587 C6.4609,74.7097 9.1009,76.9997 12.0539,76.9997 L40.6889,76.9997 C43.6419,76.9997 46.2819,74.6387 46.5549,71.6887 L52.7199,5.2787 C52.9929,2.3277 50.8009,-0.0003 47.8479,-0.0003 L4.8949,-0.0003 Z" id="Fill-3" fill="#61666B" sketch:type="MSShapeGroup"></path>
            </g>
        </g>
    </g>
</svg>